<?xml version="1.0" encoding="utf-8"?>
<!-- Generator: Adobe Illustrator 16.0.0, SVG Export Plug-In . SVG Version: 6.00 Build 0)  -->
<!DOCTYPE svg PUBLIC "-//W3C//DTD SVG 1.1//EN" "http://www.w3.org/Graphics/SVG/1.1/DTD/svg11.dtd">
<svg version="1.1" id="Layer_1" xmlns="http://www.w3.org/2000/svg" xmlns:xlink="http://www.w3.org/1999/xlink" x="0px" y="0px"
	 width="128px" height="128px" viewBox="0 0 128 128" enable-background="new 0 0 128 128" xml:space="preserve">
<g>
	<g>
		<path fill="#282D33" d="M30.317,102.139c-1.092-0.838-2.167-1.729-3.195-2.647l2.666-2.982c0.954,0.853,1.951,1.68,2.964,2.456
			L30.317,102.139z M24.135,96.612c-0.957-0.994-1.886-2.036-2.762-3.096l3.082-2.549c0.813,0.982,1.675,1.948,2.563,2.871
			L24.135,96.612z M18.852,90.219c-0.797-1.128-1.559-2.299-2.264-3.479l3.433-2.053c0.654,1.094,1.36,2.179,2.099,3.225
			L18.852,90.219z M14.596,83.1c-0.617-1.237-1.192-2.51-1.708-3.783l3.706-1.504c0.478,1.178,1.01,2.356,1.582,3.502L14.596,83.1z
			 M11.474,75.414c-0.419-1.316-0.792-2.662-1.107-3.999l3.894-0.918c0.292,1.237,0.637,2.483,1.025,3.702L11.474,75.414z
			 M9.57,67.343c-0.212-1.361-0.375-2.749-0.482-4.125l3.988-0.312c0.099,1.274,0.25,2.559,0.446,3.819L9.57,67.343z M12.921,59.068
			h-4V58.94c0-1.335,0.049-2.686,0.147-4.014l3.989,0.293c-0.09,1.231-0.136,2.483-0.136,3.721V59.068z M13.484,51.398l-3.955-0.597
			c0.206-1.363,0.467-2.735,0.777-4.079l3.897,0.898C13.917,48.865,13.675,50.136,13.484,51.398z M15.211,43.912l-3.816-1.196
			c0.413-1.318,0.882-2.635,1.395-3.914l3.713,1.489C16.028,41.474,15.594,42.692,15.211,43.912z M18.069,36.778l-3.589-1.768
			c0.607-1.233,1.272-2.462,1.977-3.652l3.442,2.037C19.248,34.498,18.632,35.636,18.069,36.778z M21.983,30.163l-3.278-2.293
			c0.789-1.128,1.632-2.241,2.506-3.309l3.095,2.534C23.496,28.084,22.714,29.117,21.983,30.163z M26.854,24.212l-2.896-2.76
			c0.95-0.997,1.951-1.971,2.975-2.894l2.679,2.971C28.664,22.385,27.735,23.288,26.854,24.212z M32.563,19.059l-2.449-3.162
			c1.089-0.844,2.224-1.656,3.373-2.416l2.205,3.337C34.626,17.523,33.574,18.277,32.563,19.059z M38.98,14.82l-1.948-3.493
			c1.203-0.671,2.446-1.304,3.696-1.883l1.681,3.63C41.249,13.61,40.096,14.198,38.98,14.82z M45.957,11.591l-1.401-3.747
			c1.289-0.481,2.613-0.921,3.937-1.305l1.116,3.841C48.38,10.737,47.152,11.145,45.957,11.591z"/>
	</g>
	<g>
		<path fill="#282D33" d="M97.686,102.142l-2.436-3.174c1.014-0.777,2.01-1.604,2.963-2.456l2.666,2.982
			C99.852,100.412,98.777,101.303,97.686,102.142z M103.867,96.613l-2.883-2.771c0.887-0.924,1.748-1.89,2.561-2.872l3.084,2.547
			C105.752,94.576,104.824,95.618,103.867,96.613z M109.148,90.221l-3.268-2.309c0.738-1.044,1.445-2.129,2.1-3.224l3.434,2.053
			C110.707,87.923,109.945,89.094,109.148,90.221z M113.404,83.102l-3.58-1.783c0.568-1.14,1.102-2.319,1.584-3.505l3.705,1.508
			C114.592,80.601,114.018,81.872,113.404,83.102z M116.525,75.417l-3.811-1.217c0.389-1.218,0.734-2.463,1.025-3.7l3.895,0.916
			C117.318,72.754,116.945,74.1,116.525,75.417z M118.432,67.345l-3.953-0.617c0.197-1.26,0.346-2.544,0.445-3.819l3.988,0.312
			C118.805,64.596,118.643,65.983,118.432,67.345z M115.078,59.07l0.002-0.174c-0.002-1.188-0.047-2.44-0.137-3.677l3.99-0.29
			c0.096,1.333,0.145,2.682,0.145,4.012L115.078,59.07z M114.516,51.4c-0.191-1.258-0.432-2.53-0.719-3.778l3.898-0.896
			c0.309,1.347,0.57,2.718,0.775,4.077L114.516,51.4z M112.789,43.914c-0.381-1.217-0.816-2.436-1.291-3.622l3.713-1.487
			c0.514,1.281,0.982,2.598,1.395,3.913L112.789,43.914z M109.932,36.781c-0.564-1.147-1.182-2.286-1.83-3.383l3.443-2.037
			c0.699,1.185,1.365,2.413,1.975,3.651L109.932,36.781z M106.02,30.164c-0.73-1.045-1.514-2.077-2.324-3.068l3.096-2.533
			c0.875,1.069,1.717,2.182,2.506,3.308L106.02,30.164z M101.148,24.213c-0.883-0.924-1.811-1.828-2.76-2.684l2.68-2.97
			c1.023,0.923,2.023,1.896,2.975,2.894L101.148,24.213z M95.439,19.06c-1.014-0.784-2.066-1.538-3.129-2.241l2.205-3.337
			c1.146,0.758,2.281,1.571,3.373,2.416L95.439,19.06z M89.023,14.82c-1.115-0.621-2.27-1.208-3.43-1.746l1.68-3.63
			c1.252,0.579,2.496,1.213,3.697,1.883L89.023,14.82z M82.045,11.592c-1.191-0.446-2.42-0.854-3.65-1.211l1.117-3.841
			c1.326,0.386,2.648,0.825,3.934,1.305L82.045,11.592z"/>
	</g>
	<g>
		<g>
			<path fill="#282D33" d="M85.846,90.538c-7.18-7.239-11.465-19.395-11.465-32.514c0.002-3.098,0.242-6.178,0.713-9.157
				l3.951,0.625c-0.439,2.773-0.662,5.645-0.664,8.534c0,12.087,3.852,23.189,10.305,29.696L85.846,90.538z"/>
		</g>
		<g>
			<path fill="#282D33" d="M42.157,90.538l-2.84-2.816c6.452-6.506,10.303-17.607,10.303-29.698c0-2.984-0.239-5.955-0.709-8.83
				l3.947-0.646c0.505,3.088,0.762,6.276,0.762,9.476C53.621,71.146,49.335,83.301,42.157,90.538z"/>
		</g>
		<g>
			<path fill="#282D33" d="M97.063,118.001l-3.986-0.32c0.063-0.789,0.092-1.449,0.092-2.077c0-6.463-2.34-12.516-6.588-17.041
				l2.916-2.738c4.947,5.271,7.672,12.295,7.672,19.779C97.168,116.331,97.133,117.115,97.063,118.001z"/>
		</g>
		<g>
			<path fill="#282D33" d="M30.942,118.005c-0.075-0.906-0.11-1.67-0.11-2.403c0-7.482,2.726-14.506,7.676-19.777l2.916,2.738
				c-4.251,4.526-6.592,10.578-6.592,17.039c0,0.62,0.031,1.279,0.096,2.073L30.942,118.005z"/>
		</g>
		<g>
			<path fill="#282D33" d="M95.332,128H32.668c-2.467,0-4.474-1.997-4.474-4.452v-3.677c0-2.454,2.007-4.45,4.474-4.45h10.412v4
				H32.668c-0.261,0-0.474,0.202-0.474,0.45v3.677c0,0.249,0.213,0.452,0.474,0.452h62.664c0.262,0,0.475-0.203,0.475-0.452v-3.677
				c0-0.248-0.213-0.45-0.475-0.45H71.113v-4h24.219c2.469,0,4.475,1.996,4.475,4.45v3.677C99.807,126.003,97.801,128,95.332,128z"
				/>
		</g>
		<g>
			<rect x="60.396" y="115.421" fill="#282D33" width="5.771" height="4"/>
		</g>
		<g>
			<path fill="#282D33" d="M64,15.183c-4.215,0-7.644-3.405-7.644-7.59C56.356,3.406,59.786,0,64,0c4.214,0,7.642,3.406,7.642,7.593
				C71.643,11.778,68.215,15.183,64,15.183z M64,4c-2.009,0-3.644,1.612-3.644,3.593c0,1.979,1.635,3.59,3.644,3.59
				s3.642-1.611,3.642-3.59C67.643,5.612,66.01,4,64,4z"/>
		</g>
		<g>
			<path fill="#282D33" d="M84.854,27.254c-1.076,0-1.955-0.852-1.998-1.917C82.424,23.624,75.074,15.479,64,15.174
				c-11.073,0.304-18.421,8.449-18.854,10.162c-0.043,1.066-0.921,1.918-1.999,1.918c-1.104,0-2-0.896-2-2
				c0-3.916,9.869-13.753,22.802-14.08L64,11.173l0.05,0.001c12.934,0.327,22.803,10.164,22.803,14.08
				C86.854,26.358,85.959,27.254,84.854,27.254z"/>
		</g>
		<g>
			<path fill="#282D33" d="M52.711,41.997c-0.385,0-0.775-0.111-1.119-0.343c-7.25-4.903-10.457-13.014-10.443-14.538
				c0.01-1.104,0.931-2.026,2.017-1.983c1.033,0.009,1.875,0.799,1.974,1.804c0.241,1.004,2.773,7.399,8.694,11.404
				c0.915,0.619,1.155,1.862,0.536,2.777C53.983,41.689,53.353,41.997,52.711,41.997z"/>
		</g>
		<g>
			<path fill="#282D33" d="M74.813,42.311c-0.66,0-1.305-0.327-1.688-0.924c-0.594-0.931-0.32-2.167,0.609-2.762
				c6.219-3.971,8.879-10.641,9.129-11.688c0.098-1.005,0.941-1.795,1.975-1.804c0.006,0,0.012,0,0.016,0
				c1.098,0,1.99,0.884,2,1.983c0.014,1.607-3.354,10.021-10.967,14.88C75.555,42.208,75.182,42.31,74.813,42.311z"/>
		</g>
		<g>
			<path fill="#282D33" d="M87.912,99.301H40.089c-2.467,0-4.474-1.997-4.474-4.451v-3.677c0-2.454,2.007-4.45,4.474-4.45h8.761v4
				h-8.761c-0.261,0-0.474,0.202-0.474,0.45v3.677c0,0.249,0.212,0.451,0.474,0.451h47.823c0.26,0,0.473-0.202,0.473-0.451v-3.677
				c0-0.248-0.213-0.45-0.473-0.45H76.988v-4h10.924c2.467,0,4.473,1.996,4.473,4.45v3.677
				C92.385,97.304,90.379,99.301,87.912,99.301z"/>
		</g>
		<g>
			<rect x="68.229" y="86.723" fill="#282D33" width="5.049" height="4"/>
		</g>
		<g>
			<path fill="#282D33" d="M76.779,51.606H51.221c-2.467,0-4.474-1.997-4.474-4.452v-3.676c0-2.455,2.007-4.452,4.474-4.452h25.559
				c2.467,0,4.475,1.997,4.475,4.452v3.676C81.254,49.609,79.246,51.606,76.779,51.606z M51.221,43.026
				c-0.261,0-0.474,0.203-0.474,0.452v3.676c0,0.25,0.213,0.452,0.474,0.452h25.559c0.262,0,0.475-0.203,0.475-0.452v-3.676
				c0-0.25-0.213-0.452-0.475-0.452H51.221z"/>
		</g>
	</g>
	<g>
		<rect x="72.352" y="23.254" fill="#282D33" width="11.543" height="4"/>
	</g>
</g>
</svg>
